<?xml version="1.0" encoding="UTF-8" standalone="no"?>
<svg viewBox="0 0 50 50"
 xmlns="http://www.w3.org/2000/svg" xmlns:xlink="http://www.w3.org/1999/xlink" version="1.2" baseProfile="tiny">
<title>Qt SVG Document</title>
<desc>Generated with Qt</desc>
<defs>
</defs>
<g fill="none" stroke="black" stroke-width="1" fill-rule="evenodd" stroke-linecap="square" stroke-linejoin="bevel" >

<g fill="none" stroke="#000000" stroke-opacity="1" stroke-width="1" stroke-linecap="square" stroke-linejoin="bevel" transform="matrix(1,0,0,1,0,0)"
font-family="Noto Sans" font-size="10" font-weight="400" font-style="normal" 
>
</g>

<g fill="#3daee9" fill-opacity="0.480003" stroke="#3daee9" stroke-opacity="0.720012" stroke-width="2.5025" stroke-linecap="square" stroke-linejoin="bevel" transform="matrix(1,0,0,1,2.5,2.5)"
font-family="Noto Sans" font-size="10" font-weight="400" font-style="normal" 
>
<rect x="-1.25125" y="-1.25125" width="47.5025" height="47.5025"/>
</g>

<g fill="none" stroke="#000000" stroke-opacity="1" stroke-width="1" stroke-linecap="square" stroke-linejoin="bevel" transform="matrix(1,0,0,1,0,0)"
font-family="Noto Sans" font-size="10" font-weight="400" font-style="normal" 
>
</g>

<g fill="none" stroke="#707d8a" stroke-opacity="0.500008" stroke-width="1.001" stroke-linecap="square" stroke-linejoin="bevel" transform="matrix(2.5,0,0,2.5,2.5,2.5)"
font-family="Noto Sans" font-size="10" font-weight="400" font-style="normal" 
>
</g>

<g fill="none" stroke="#707d8a" stroke-opacity="0.450004" stroke-width="1.2012" stroke-linecap="round" stroke-linejoin="miter" stroke-miterlimit="2" transform="matrix(2.5,0,0,2.5,2.5,2.5)"
font-family="Noto Sans" font-size="10" font-weight="400" font-style="normal" 
>
<path vector-effect="none" fill-rule="evenodd" d="M4.4,5.32 C4.4,4.8119 4.8119,4.4 5.32,4.4 L12.68,4.4 C13.1881,4.4 13.6,4.8119 13.6,5.32 L13.6,12.68 C13.6,13.1881 13.1881,13.6 12.68,13.6 L5.32,13.6 C4.8119,13.6 4.4,13.1881 4.4,12.68 L4.4,5.32"/>
</g>

<g fill="none" stroke="#707d8a" stroke-opacity="0.500008" stroke-width="1.001" stroke-linecap="square" stroke-linejoin="bevel" transform="matrix(2.5,0,0,2.5,2.5,2.5)"
font-family="Noto Sans" font-size="10" font-weight="400" font-style="normal" 
>
</g>

<g fill="none" stroke="#000000" stroke-opacity="1" stroke-width="1" stroke-linecap="square" stroke-linejoin="bevel" transform="matrix(1,0,0,1,0,0)"
font-family="Noto Sans" font-size="10" font-weight="400" font-style="normal" 
>
</g>
</g>
</svg>
